<svg xmlns="http://www.w3.org/2000/svg" viewBox="0 0 32 32" role="img" aria-label="FloodSense Ghana">
  <rect width="32" height="32" rx="7" fill="#17130f"/>
  <path d="M4 21c3 0 3 2 6 2s3-2 6-2 3 2 6 2 3-2 6-2v7H4z" fill="#1f6c7f"/>
  <path d="M4 24c3 0 3 2 6 2s3-2 6-2 3 2 6 2 3-2 6-2" fill="none" stroke="#4f97a8" stroke-width="1.3"/>
  <rect x="14.6" y="6" width="2.8" height="15" rx="1" fill="#e0a83d"/>
  <rect x="14.6" y="9" width="2.8" height="1.4" fill="#17130f"/>
  <rect x="14.6" y="13" width="2.8" height="1.4" fill="#17130f"/>
  <rect x="14.6" y="17" width="2.8" height="1.4" fill="#17130f"/>
  <circle cx="16" cy="6" r="2.4" fill="#c25334"/>
</svg>
